<?xml version="1.0" encoding="UTF-8"?>
<!DOCTYPE svg PUBLIC "-//W3C//DTD SVG 1.1//EN" "http://www.w3.org/Graphics/SVG/1.1/DTD/svg11.dtd">
<!-- Creator: CorelDRAW 2020 (64-Bit) -->
<svg xmlns="http://www.w3.org/2000/svg" xml:space="preserve" width="278px" height="278px" version="1.1" style="shape-rendering:geometricPrecision; text-rendering:geometricPrecision; image-rendering:optimizeQuality; fill-rule:evenodd; clip-rule:evenodd"
viewBox="0 0 10.91 10.91"
 xmlns:xlink="http://www.w3.org/1999/xlink"
 xmlns:xodm="http://www.corel.com/coreldraw/odm/2003">
 <defs>
  <style type="text/css">
   <![CDATA[
    .str0 {stroke:white;stroke-width:0.77;stroke-linejoin:round;stroke-miterlimit:22.9256}
    .fil1 {fill:#FEFEFE}
    .fil0 {fill:white}
   ]]>
  </style>
 </defs>
 <g id="Слой_x0020_1">
  <metadata id="CorelCorpID_0Corel-Layer"/>
  <polygon class="fil0" points="2.85,5.81 6.68,5.81 5.23,7.26 6.25,7.26 8.06,5.45 6.25,3.65 5.23,3.65 6.67,5.09 2.85,5.09 2.85,5.82 "/>
  <path class="fil1 str0" d="M10.52 5.45c0,-2.8 -2.27,-5.07 -5.07,-5.07 -2.8,0 -5.07,2.27 -5.07,5.07 0,2.8 2.27,5.07 5.07,5.07 2.8,0 5.07,-2.27 5.07,-5.07zm-0.35 0c0,-2.6 -2.11,-4.72 -4.72,-4.72 -2.6,0 -4.72,2.12 -4.72,4.72 0,2.61 2.12,4.72 4.72,4.72 2.61,0 4.72,-2.11 4.72,-4.72z"/>
 </g>
</svg>
