<!-- Generated by IcoMoon.io -->
<svg version="1.1" xmlns="http://www.w3.org/2000/svg" width="32" height="32" viewBox="0 0 32 32">
<title>arrow</title>
<path fill="#fff" d="M8.359 17.041h11.234l-4.253 4.253h2.992l5.309-5.309-5.309-5.28h-2.992l4.224 4.224h-11.204v2.141z"></path>
<path fill="#fefefe" d="M30.856 15.985c0 8.213-6.658 14.871-14.871 14.871s-14.871-6.658-14.871-14.871c0-8.213 6.658-14.871 14.871-14.871s14.871 6.658 14.871 14.871zM29.829 15.985c0-7.626-6.189-13.844-13.844-13.844-7.626 0-13.844 6.218-13.844 13.844 0 7.655 6.218 13.844 13.844 13.844 7.655 0 13.844-6.189 13.844-13.844z"></path>
</svg>
