<!-- Generated by IcoMoon.io -->
<svg version="1.1" xmlns="http://www.w3.org/2000/svg" width="32" height="32" viewBox="0 0 32 32">
<title>gridview</title>
<path fill="#fff" d="M2.285 0h4.572c0 0 0.001 0 0.001 0 1.262 0 2.285 1.023 2.285 2.285v4.572c0 1.262-1.023 2.285-2.285 2.285-0 0-0.001 0-0.001 0h-4.572c-1.262 0-2.285-1.023-2.285-2.285v0-4.572c0-1.262 1.023-2.285 2.285-2.285v0zM2.285 11.429h4.572c0 0 0.001 0 0.001 0 1.262 0 2.285 1.023 2.285 2.285v4.572c0 0 0 0.001 0 0.001 0 1.262-1.023 2.285-2.285 2.285-0 0-0.001 0-0.001 0h-4.572c-1.262 0-2.285-1.023-2.285-2.285 0-0 0-0.001 0-0.001v0-4.572c0-1.262 1.023-2.285 2.285-2.285v0zM2.285 22.858h4.572c1.263 0 2.286 1.024 2.286 2.286v0 4.572c-0.001 1.262-1.024 2.284-2.285 2.284-0 0-0.001 0-0.001 0h-4.572c-1.262 0-2.284-1.022-2.285-2.284v-4.572c0-1.262 1.023-2.286 2.285-2.286h0zM13.715 0h4.572c1.262 0 2.285 1.023 2.285 2.285v0 4.572c0 1.262-1.023 2.285-2.285 2.285v0h-4.572c-1.262 0-2.286-1.023-2.286-2.285v-4.572c0-1.262 1.024-2.285 2.286-2.285v0zM25.144 0h4.572c1.262 0.001 2.284 1.024 2.284 2.285v0 4.572c0 1.262-1.023 2.285-2.285 2.285v0h-4.572c-1.262 0-2.285-1.023-2.285-2.285v0-4.572c0-1.262 1.023-2.285 2.285-2.285 0.001 0 0.001 0 0.002 0h-0zM25.144 11.429h4.572c1.262 0.001 2.284 1.024 2.284 2.285v0 4.572c0 0 0 0.001 0 0.001 0 1.262-1.023 2.285-2.285 2.285h-4.572c-1.262 0-2.285-1.023-2.285-2.285 0-0 0-0.001 0-0.001v0-4.572c0-1.262 1.023-2.285 2.285-2.285 0.001 0 0.001 0 0.002 0h-0zM25.144 22.858h4.572c1.262 0.001 2.284 1.024 2.284 2.286v0 4.572c-0.001 1.261-1.023 2.283-2.284 2.284h-4.572c-1.262 0-2.285-1.023-2.285-2.285v0-4.572c0.001-1.262 1.024-2.284 2.285-2.285h0zM13.715 22.858h4.572c1.262 0 2.285 1.024 2.285 2.286v4.572c-0.001 1.262-1.024 2.284-2.285 2.284h-4.572c-1.262 0-2.286-1.023-2.286-2.285v-4.572c0.001-1.262 1.024-2.284 2.286-2.285h0zM13.715 11.429h4.572c1.262 0 2.285 1.023 2.285 2.285v0 4.572c0 0 0 0.001 0 0.001 0 1.262-1.023 2.285-2.285 2.285h-4.572c-1.263 0-2.286-1.024-2.286-2.286v0-4.572c0-1.262 1.024-2.285 2.286-2.285v0z"></path>
</svg>
