<!-- Generated by IcoMoon.io -->
<svg version="1.1" xmlns="http://www.w3.org/2000/svg" width="32" height="32" viewBox="0 0 32 32">
<title>video</title>
<path fill="#fefefe" d="M0 0v32h6.003v-14.001h19.995v14.001h6.003v-32h-1.841v2.089h-2.269v-2.089h-1.892v14.001h-19.995v-14.001h-1.918v2.089h-2.278v-2.089h-1.807zM28.078 3.999h2.004v2.004h-2.004v-2.004zM28.078 8.041h2.004v1.995h-2.004v-1.995zM28.078 12.014h2.004v1.995h-2.004v-1.995zM28.078 15.987h2.004v2.004h-2.004v-2.004zM28.078 19.96h2.004v2.004h-2.004v-2.004zM28.078 23.942h2.004v1.995h-2.004v-1.995zM28.078 27.915h2.004v2.004h-2.004v-2.004zM2.004 3.999h1.995v2.004h-1.995v-2.004zM2.004 8.041h1.995v1.995h-1.995v-1.995zM2.004 12.014h1.995v1.995h-1.995v-1.995zM2.004 15.987h1.995v2.004h-1.995v-2.004zM2.004 19.96h1.995v2.004h-1.995v-2.004zM2.004 23.942h1.995v1.995h-1.995v-1.995zM2.004 27.915h1.995v2.004h-1.995v-2.004z"></path>
<path fill="#fefefe" d="M7.998 0h16.004v12.005h-16.004v-12.005z"></path>
<path fill="#fefefe" d="M7.998 19.9h16.004v12.005h-16.004v-12.005z"></path>
</svg>
